solid OpenSCAD_Model
  facet normal -1 0 0
    outer loop
      vertex 0 5.5 0
      vertex 0 5 5
      vertex 0 5.5 5
    endloop
  endfacet
  facet normal -1 -0 0
    outer loop
      vertex 0 5 5
      vertex 0 0 0
      vertex 0 5 8.5
    endloop
  endfacet
  facet normal -1 0 0
    outer loop
      vertex 0 0 0
      vertex 0 5 5
      vertex 0 5.5 0
    endloop
  endfacet
  facet normal -1 0 0
    outer loop
      vertex 0 17 8.5
      vertex 0 22 0
      vertex 0 17 5
    endloop
  endfacet
  facet normal -1 0 0
    outer loop
      vertex 0 13.75 0
      vertex 0 17 5
      vertex 0 22 0
    endloop
  endfacet
  facet normal -1 -0 0
    outer loop
      vertex 0 17 5
      vertex 0 13.75 0
      vertex 0 13.75 5
    endloop
  endfacet
  facet normal -1 0 0
    outer loop
      vertex 0 22 0
      vertex 0 17 8.5
      vertex 0 22 17
    endloop
  endfacet
  facet normal -1 0 0
    outer loop
      vertex 0 5 8.5
      vertex 0 22 17
      vertex 0 17 8.5
    endloop
  endfacet
  facet normal -1 0 0
    outer loop
      vertex 0 5 8.5
      vertex 0 0 17
      vertex 0 22 17
    endloop
  endfacet
  facet normal -1 0 0
    outer loop
      vertex 0 0 17
      vertex 0 5 8.5
      vertex 0 0 0
    endloop
  endfacet
  facet normal 0 0 1
    outer loop
      vertex 33 22 17
      vertex 28 17 17
      vertex 33 0 17
    endloop
  endfacet
  facet normal 0 0 1
    outer loop
      vertex 33 22 17
      vertex 5 17 17
      vertex 28 17 17
    endloop
  endfacet
  facet normal 0 0 1
    outer loop
      vertex 5 17 17
      vertex 0 22 17
      vertex 5 5 17
    endloop
  endfacet
  facet normal -0 0 1
    outer loop
      vertex 0 22 17
      vertex 5 17 17
      vertex 33 22 17
    endloop
  endfacet
  facet normal -0 0 1
    outer loop
      vertex 28 5 17
      vertex 33 0 17
      vertex 28 17 17
    endloop
  endfacet
  facet normal -0 0 1
    outer loop
      vertex 5 5 17
      vertex 33 0 17
      vertex 28 5 17
    endloop
  endfacet
  facet normal 0 0 1
    outer loop
      vertex 5 5 17
      vertex 0 0 17
      vertex 33 0 17
    endloop
  endfacet
  facet normal 0 0 1
    outer loop
      vertex 0 0 17
      vertex 5 5 17
      vertex 0 22 17
    endloop
  endfacet
  facet normal 1 0 0
    outer loop
      vertex 33 22 17
      vertex 33 17 8.5
      vertex 33 22 0
    endloop
  endfacet
  facet normal 1 0 0
    outer loop
      vertex 33 22 17
      vertex 33 5 8.5
      vertex 33 17 8.5
    endloop
  endfacet
  facet normal 1 0 0
    outer loop
      vertex 33 0 0
      vertex 33 5 8.5
      vertex 33 0 17
    endloop
  endfacet
  facet normal 1 -0 0
    outer loop
      vertex 33 0 17
      vertex 33 5 8.5
      vertex 33 22 17
    endloop
  endfacet
  facet normal 1 -0 0
    outer loop
      vertex 33 17 5
      vertex 33 22 0
      vertex 33 17 8.5
    endloop
  endfacet
  facet normal 1 0 0
    outer loop
      vertex 33 13.75 0
      vertex 33 17 5
      vertex 33 13.75 5
    endloop
  endfacet
  facet normal 1 0 0
    outer loop
      vertex 33 17 5
      vertex 33 13.75 0
      vertex 33 22 0
    endloop
  endfacet
  facet normal 1 -0 0
    outer loop
      vertex 33 5 5
      vertex 33 5.5 0
      vertex 33 5.5 5
    endloop
  endfacet
  facet normal 1 0 0
    outer loop
      vertex 33 5 8.5
      vertex 33 0 0
      vertex 33 5 5
    endloop
  endfacet
  facet normal 1 0 0
    outer loop
      vertex 33 5 5
      vertex 33 0 0
      vertex 33 5.5 0
    endloop
  endfacet
  facet normal 0 1 0
    outer loop
      vertex 33 22 17
      vertex 20.625 22 5
      vertex 0 22 17
    endloop
  endfacet
  facet normal 0 1 -0
    outer loop
      vertex 33 22 0
      vertex 20.625 22 5
      vertex 33 22 17
    endloop
  endfacet
  facet normal 0 1 0
    outer loop
      vertex 20.625 22 5
      vertex 33 22 0
      vertex 20.625 22 0
    endloop
  endfacet
  facet normal 0 1 -0
    outer loop
      vertex 12.375 22 5
      vertex 0 22 17
      vertex 20.625 22 5
    endloop
  endfacet
  facet normal 0 1 0
    outer loop
      vertex 0 22 0
      vertex 12.375 22 5
      vertex 12.375 22 0
    endloop
  endfacet
  facet normal 0 1 0
    outer loop
      vertex 12.375 22 5
      vertex 0 22 0
      vertex 0 22 17
    endloop
  endfacet
  facet normal 0 0 -1
    outer loop
      vertex -49.5 5.5 0
      vertex 0 13.75 0
      vertex 0 5.5 0
    endloop
  endfacet
  facet normal -0 0 -1
    outer loop
      vertex 0 13.75 0
      vertex -49.5 5.5 0
      vertex -49.5 13.75 0
    endloop
  endfacet
  facet normal 0 0 -1
    outer loop
      vertex 0 5.5 0
      vertex 12.375 0 0
      vertex 0 0 0
    endloop
  endfacet
  facet normal 0 0 -1
    outer loop
      vertex 0 13.75 0
      vertex 12.375 0 0
      vertex 0 5.5 0
    endloop
  endfacet
  facet normal 0 0 -1
    outer loop
      vertex 12.375 0 0
      vertex 0 13.75 0
      vertex 12.375 22 0
    endloop
  endfacet
  facet normal -0 0 -1
    outer loop
      vertex 12.375 22 0
      vertex 0 13.75 0
      vertex 0 22 0
    endloop
  endfacet
  facet normal 0 0 -1
    outer loop
      vertex 12.375 0 0
      vertex 20.625 0 0
      vertex 20.625 -44 0
    endloop
  endfacet
  facet normal 0 0 -1
    outer loop
      vertex 20.625 0 0
      vertex 12.375 0 0
      vertex 20.625 22 0
    endloop
  endfacet
  facet normal 0 0 -1
    outer loop
      vertex 12.375 0 0
      vertex 20.625 -44 0
      vertex 12.375 -44 0
    endloop
  endfacet
  facet normal 0 0 -1
    outer loop
      vertex 12.375 22 0
      vertex 20.625 22 0
      vertex 12.375 0 0
    endloop
  endfacet
  facet normal 0 0 -1
    outer loop
      vertex 20.625 22 0
      vertex 12.375 22 0
      vertex 20.625 66 0
    endloop
  endfacet
  facet normal -0 0 -1
    outer loop
      vertex 20.625 66 0
      vertex 12.375 22 0
      vertex 12.375 66 0
    endloop
  endfacet
  facet normal 0 0 -1
    outer loop
      vertex 20.625 0 0
      vertex 33 5.5 0
      vertex 33 0 0
    endloop
  endfacet
  facet normal -0 0 -1
    outer loop
      vertex 33 5.5 0
      vertex 20.625 0 0
      vertex 33 13.75 0
    endloop
  endfacet
  facet normal 0 0 -1
    outer loop
      vertex 20.625 22 0
      vertex 33 13.75 0
      vertex 20.625 0 0
    endloop
  endfacet
  facet normal 0 0 -1
    outer loop
      vertex 33 13.75 0
      vertex 20.625 22 0
      vertex 33 22 0
    endloop
  endfacet
  facet normal 0 0 -1
    outer loop
      vertex 33 5.5 0
      vertex 82.5 13.75 0
      vertex 82.5 5.5 0
    endloop
  endfacet
  facet normal -0 0 -1
    outer loop
      vertex 82.5 13.75 0
      vertex 33 5.5 0
      vertex 33 13.75 0
    endloop
  endfacet
  facet normal 0 -1 0
    outer loop
      vertex 0 0 17
      vertex 12.375 0 5
      vertex 33 0 17
    endloop
  endfacet
  facet normal 0 -1 0
    outer loop
      vertex 0 0 0
      vertex 12.375 0 5
      vertex 0 0 17
    endloop
  endfacet
  facet normal 0 -1 -0
    outer loop
      vertex 12.375 0 5
      vertex 0 0 0
      vertex 12.375 0 0
    endloop
  endfacet
  facet normal 0 -1 0
    outer loop
      vertex 20.625 0 5
      vertex 33 0 17
      vertex 12.375 0 5
    endloop
  endfacet
  facet normal 0 -1 0
    outer loop
      vertex 33 0 0
      vertex 20.625 0 5
      vertex 20.625 0 0
    endloop
  endfacet
  facet normal 0 -1 0
    outer loop
      vertex 20.625 0 5
      vertex 33 0 0
      vertex 33 0 17
    endloop
  endfacet
  facet normal 1 -0 0
    outer loop
      vertex 5 5 17
      vertex 5 17 8.5
      vertex 5 17 17
    endloop
  endfacet
  facet normal 1 0 0
    outer loop
      vertex 5 17 8.5
      vertex 5 5 17
      vertex 5 5 8.5
    endloop
  endfacet
  facet normal -1 0 0
    outer loop
      vertex 28 5 8.5
      vertex 28 17 17
      vertex 28 17 8.5
    endloop
  endfacet
  facet normal -1 -0 0
    outer loop
      vertex 28 17 17
      vertex 28 5 8.5
      vertex 28 5 17
    endloop
  endfacet
  facet normal -0 0 1
    outer loop
      vertex 0 13.75 5
      vertex 12.375 5.5 5
      vertex 12.375 13.75 5
    endloop
  endfacet
  facet normal 0 0 1
    outer loop
      vertex 0 13.75 5
      vertex 0 5.5 5
      vertex 12.375 5.5 5
    endloop
  endfacet
  facet normal -0 0 1
    outer loop
      vertex -49.5 13.75 5
      vertex 0 5.5 5
      vertex 0 13.75 5
    endloop
  endfacet
  facet normal 0 0 1
    outer loop
      vertex 0 5.5 5
      vertex -49.5 13.75 5
      vertex -49.5 5.5 5
    endloop
  endfacet
  facet normal 0 0 1
    outer loop
      vertex 12.375 13.75 5
      vertex 20.625 13.75 5
      vertex 20.625 17 5
    endloop
  endfacet
  facet normal 0 0 1
    outer loop
      vertex 20.625 13.75 5
      vertex 12.375 13.75 5
      vertex 20.625 5.5 5
    endloop
  endfacet
  facet normal 0 0 1
    outer loop
      vertex 12.375 13.75 5
      vertex 20.625 17 5
      vertex 12.375 17 5
    endloop
  endfacet
  facet normal 0 0 1
    outer loop
      vertex 12.375 5.5 5
      vertex 20.625 5.5 5
      vertex 12.375 13.75 5
    endloop
  endfacet
  facet normal 0 0 1
    outer loop
      vertex 20.625 5.5 5
      vertex 12.375 5.5 5
      vertex 20.625 5 5
    endloop
  endfacet
  facet normal 0 0 1
    outer loop
      vertex 20.625 5 5
      vertex 12.375 5.5 5
      vertex 12.375 5 5
    endloop
  endfacet
  facet normal -0 0 1
    outer loop
      vertex 33 13.75 5
      vertex 82.5 5.5 5
      vertex 82.5 13.75 5
    endloop
  endfacet
  facet normal 0 0 1
    outer loop
      vertex 33 13.75 5
      vertex 33 5.5 5
      vertex 82.5 5.5 5
    endloop
  endfacet
  facet normal -0 0 1
    outer loop
      vertex 20.625 13.75 5
      vertex 33 5.5 5
      vertex 33 13.75 5
    endloop
  endfacet
  facet normal 0 0 1
    outer loop
      vertex 33 5.5 5
      vertex 20.625 13.75 5
      vertex 20.625 5.5 5
    endloop
  endfacet
  facet normal -0 0 1
    outer loop
      vertex 12.375 0 5
      vertex 20.625 -44 5
      vertex 20.625 0 5
    endloop
  endfacet
  facet normal 0 0 1
    outer loop
      vertex 20.625 -44 5
      vertex 12.375 0 5
      vertex 12.375 -44 5
    endloop
  endfacet
  facet normal -0 0 1
    outer loop
      vertex 12.375 66 5
      vertex 20.625 22 5
      vertex 20.625 66 5
    endloop
  endfacet
  facet normal 0 0 1
    outer loop
      vertex 20.625 22 5
      vertex 12.375 66 5
      vertex 12.375 22 5
    endloop
  endfacet
  facet normal -0 0 1
    outer loop
      vertex 0 17 5
      vertex 12.375 13.75 5
      vertex 12.375 17 5
    endloop
  endfacet
  facet normal 0 0 1
    outer loop
      vertex 12.375 13.75 5
      vertex 0 17 5
      vertex 0 13.75 5
    endloop
  endfacet
  facet normal -0 0 1
    outer loop
      vertex 20.625 17 5
      vertex 33 13.75 5
      vertex 33 17 5
    endloop
  endfacet
  facet normal 0 0 1
    outer loop
      vertex 33 13.75 5
      vertex 20.625 17 5
      vertex 20.625 13.75 5
    endloop
  endfacet
  facet normal -0 0 1
    outer loop
      vertex 0 5.5 5
      vertex 12.375 5 5
      vertex 12.375 5.5 5
    endloop
  endfacet
  facet normal 0 0 1
    outer loop
      vertex 12.375 5 5
      vertex 0 5.5 5
      vertex 0 5 5
    endloop
  endfacet
  facet normal -0 0 1
    outer loop
      vertex 20.625 5.5 5
      vertex 33 5 5
      vertex 33 5.5 5
    endloop
  endfacet
  facet normal 0 0 1
    outer loop
      vertex 33 5 5
      vertex 20.625 5.5 5
      vertex 20.625 5 5
    endloop
  endfacet
  facet normal 0 1 -0
    outer loop
      vertex 33 5 5
      vertex 28 5 8.5
      vertex 33 5 8.5
    endloop
  endfacet
  facet normal 0 1 0
    outer loop
      vertex 28 5 8.5
      vertex 20.625 5 5
      vertex 5 5 8.5
    endloop
  endfacet
  facet normal 0 1 0
    outer loop
      vertex 28 5 8.5
      vertex 33 5 5
      vertex 20.625 5 5
    endloop
  endfacet
  facet normal 0 1 -0
    outer loop
      vertex 12.375 5 5
      vertex 5 5 8.5
      vertex 20.625 5 5
    endloop
  endfacet
  facet normal 0 1 0
    outer loop
      vertex 0 5 5
      vertex 5 5 8.5
      vertex 12.375 5 5
    endloop
  endfacet
  facet normal 0 1 0
    outer loop
      vertex 5 5 8.5
      vertex 0 5 5
      vertex 0 5 8.5
    endloop
  endfacet
  facet normal 0 1 -0
    outer loop
      vertex 28 5 8.5
      vertex 5 5 17
      vertex 28 5 17
    endloop
  endfacet
  facet normal 0 1 0
    outer loop
      vertex 5 5 17
      vertex 28 5 8.5
      vertex 5 5 8.5
    endloop
  endfacet
  facet normal 0 -1 0
    outer loop
      vertex 0 17 5
      vertex 5 17 8.5
      vertex 0 17 8.5
    endloop
  endfacet
  facet normal 0 -1 0
    outer loop
      vertex 5 17 8.5
      vertex 12.375 17 5
      vertex 28 17 8.5
    endloop
  endfacet
  facet normal 0 -1 -0
    outer loop
      vertex 5 17 8.5
      vertex 0 17 5
      vertex 12.375 17 5
    endloop
  endfacet
  facet normal 0 -1 0
    outer loop
      vertex 20.625 17 5
      vertex 28 17 8.5
      vertex 12.375 17 5
    endloop
  endfacet
  facet normal 0 -1 0
    outer loop
      vertex 33 17 5
      vertex 28 17 8.5
      vertex 20.625 17 5
    endloop
  endfacet
  facet normal 0 -1 0
    outer loop
      vertex 28 17 8.5
      vertex 33 17 5
      vertex 33 17 8.5
    endloop
  endfacet
  facet normal 0 -1 0
    outer loop
      vertex 5 17 8.5
      vertex 28 17 17
      vertex 5 17 17
    endloop
  endfacet
  facet normal 0 -1 -0
    outer loop
      vertex 28 17 17
      vertex 5 17 8.5
      vertex 28 17 8.5
    endloop
  endfacet
  facet normal 0 0 -1
    outer loop
      vertex 0 5 8.5
      vertex 5 17 8.5
      vertex 5 5 8.5
    endloop
  endfacet
  facet normal -0 0 -1
    outer loop
      vertex 5 17 8.5
      vertex 0 5 8.5
      vertex 0 17 8.5
    endloop
  endfacet
  facet normal 0 0 -1
    outer loop
      vertex 28 5 8.5
      vertex 33 17 8.5
      vertex 33 5 8.5
    endloop
  endfacet
  facet normal -0 0 -1
    outer loop
      vertex 33 17 8.5
      vertex 28 5 8.5
      vertex 28 17 8.5
    endloop
  endfacet
  facet normal -1 0 0
    outer loop
      vertex 12.375 -44 0
      vertex 12.375 0 5
      vertex 12.375 0 0
    endloop
  endfacet
  facet normal -1 -0 0
    outer loop
      vertex 12.375 0 5
      vertex 12.375 -44 0
      vertex 12.375 -44 5
    endloop
  endfacet
  facet normal -1 0 0
    outer loop
      vertex 12.375 22 0
      vertex 12.375 66 5
      vertex 12.375 66 0
    endloop
  endfacet
  facet normal -1 -0 0
    outer loop
      vertex 12.375 66 5
      vertex 12.375 22 0
      vertex 12.375 22 5
    endloop
  endfacet
  facet normal 1 -0 0
    outer loop
      vertex 20.625 -44 5
      vertex 20.625 0 0
      vertex 20.625 0 5
    endloop
  endfacet
  facet normal 1 0 0
    outer loop
      vertex 20.625 0 0
      vertex 20.625 -44 5
      vertex 20.625 -44 0
    endloop
  endfacet
  facet normal 1 -0 0
    outer loop
      vertex 20.625 22 5
      vertex 20.625 66 0
      vertex 20.625 66 5
    endloop
  endfacet
  facet normal 1 0 0
    outer loop
      vertex 20.625 66 0
      vertex 20.625 22 5
      vertex 20.625 22 0
    endloop
  endfacet
  facet normal 0 -1 0
    outer loop
      vertex 12.375 -44 0
      vertex 20.625 -44 5
      vertex 12.375 -44 5
    endloop
  endfacet
  facet normal 0 -1 -0
    outer loop
      vertex 20.625 -44 5
      vertex 12.375 -44 0
      vertex 20.625 -44 0
    endloop
  endfacet
  facet normal 0 1 -0
    outer loop
      vertex 20.625 66 0
      vertex 12.375 66 5
      vertex 20.625 66 5
    endloop
  endfacet
  facet normal 0 1 0
    outer loop
      vertex 12.375 66 5
      vertex 20.625 66 0
      vertex 12.375 66 0
    endloop
  endfacet
  facet normal -1 0 0
    outer loop
      vertex -49.5 5.5 0
      vertex -49.5 13.75 5
      vertex -49.5 13.75 0
    endloop
  endfacet
  facet normal -1 -0 0
    outer loop
      vertex -49.5 13.75 5
      vertex -49.5 5.5 0
      vertex -49.5 5.5 5
    endloop
  endfacet
  facet normal 1 -0 0
    outer loop
      vertex 82.5 5.5 5
      vertex 82.5 13.75 0
      vertex 82.5 13.75 5
    endloop
  endfacet
  facet normal 1 0 0
    outer loop
      vertex 82.5 13.75 0
      vertex 82.5 5.5 5
      vertex 82.5 5.5 0
    endloop
  endfacet
  facet normal 0 1 -0
    outer loop
      vertex 82.5 13.75 0
      vertex 33 13.75 5
      vertex 82.5 13.75 5
    endloop
  endfacet
  facet normal 0 1 0
    outer loop
      vertex 33 13.75 5
      vertex 82.5 13.75 0
      vertex 33 13.75 0
    endloop
  endfacet
  facet normal 0 1 -0
    outer loop
      vertex 0 13.75 0
      vertex -49.5 13.75 5
      vertex 0 13.75 5
    endloop
  endfacet
  facet normal 0 1 0
    outer loop
      vertex -49.5 13.75 5
      vertex 0 13.75 0
      vertex -49.5 13.75 0
    endloop
  endfacet
  facet normal 0 -1 0
    outer loop
      vertex -49.5 5.5 0
      vertex 0 5.5 5
      vertex -49.5 5.5 5
    endloop
  endfacet
  facet normal 0 -1 -0
    outer loop
      vertex 0 5.5 5
      vertex -49.5 5.5 0
      vertex 0 5.5 0
    endloop
  endfacet
  facet normal 0 -1 0
    outer loop
      vertex 33 5.5 0
      vertex 82.5 5.5 5
      vertex 33 5.5 5
    endloop
  endfacet
  facet normal 0 -1 -0
    outer loop
      vertex 82.5 5.5 5
      vertex 33 5.5 0
      vertex 82.5 5.5 0
    endloop
  endfacet
endsolid OpenSCAD_Model
