solid OpenSCAD_Model
  facet normal -1 0 0
    outer loop
      vertex 0 0 0
      vertex 0 10.5 2
      vertex 0 10.5 0
    endloop
  endfacet
  facet normal -1 -0 0
    outer loop
      vertex 0 10.5 2
      vertex 0 0 0
      vertex 0 0 2
    endloop
  endfacet
  facet normal 0 0 1
    outer loop
      vertex 5 10.5 2
      vertex 0.5 10 2
      vertex 5 10 2
    endloop
  endfacet
  facet normal -0 0 1
    outer loop
      vertex 0 10.5 2
      vertex 0.5 10 2
      vertex 5 10.5 2
    endloop
  endfacet
  facet normal 0 0 1
    outer loop
      vertex 0 0 2
      vertex 0.5 10 2
      vertex 0 10.5 2
    endloop
  endfacet
  facet normal 0 0 1
    outer loop
      vertex 0.5 10 2
      vertex 0 0 2
      vertex 0.5 0 2
    endloop
  endfacet
  facet normal 1 -0 0
    outer loop
      vertex 0.5 0 2
      vertex 0.5 10 0
      vertex 0.5 10 2
    endloop
  endfacet
  facet normal 1 0 0
    outer loop
      vertex 0.5 10 0
      vertex 0.5 0 2
      vertex 0.5 0 0
    endloop
  endfacet
  facet normal 0 -1 0
    outer loop
      vertex 0.5 10 0
      vertex 5 10 2
      vertex 0.5 10 2
    endloop
  endfacet
  facet normal 0 -1 -0
    outer loop
      vertex 5 10 2
      vertex 0.5 10 0
      vertex 5 10 0
    endloop
  endfacet
  facet normal 0 0 -1
    outer loop
      vertex 0.5 0 0
      vertex 0 0 0
      vertex 0.5 10 0
    endloop
  endfacet
  facet normal 0 0 -1
    outer loop
      vertex 0.5 10 0
      vertex 5 10.5 0
      vertex 5 10 0
    endloop
  endfacet
  facet normal 0 0 -1
    outer loop
      vertex 0.5 10 0
      vertex 0 10.5 0
      vertex 5 10.5 0
    endloop
  endfacet
  facet normal 0 0 -1
    outer loop
      vertex 0 10.5 0
      vertex 0.5 10 0
      vertex 0 0 0
    endloop
  endfacet
  facet normal 0 -1 0
    outer loop
      vertex 0 0 0
      vertex 0.5 0 2
      vertex 0 0 2
    endloop
  endfacet
  facet normal 0 -1 -0
    outer loop
      vertex 0.5 0 2
      vertex 0 0 0
      vertex 0.5 0 0
    endloop
  endfacet
  facet normal 1 -0 0
    outer loop
      vertex 5 10 2
      vertex 5 10.5 0
      vertex 5 10.5 2
    endloop
  endfacet
  facet normal 1 0 0
    outer loop
      vertex 5 10.5 0
      vertex 5 10 2
      vertex 5 10 0
    endloop
  endfacet
  facet normal 0 1 -0
    outer loop
      vertex 5 10.5 0
      vertex 0 10.5 2
      vertex 5 10.5 2
    endloop
  endfacet
  facet normal 0 1 0
    outer loop
      vertex 0 10.5 2
      vertex 5 10.5 0
      vertex 0 10.5 0
    endloop
  endfacet
  facet normal -1 0 0
    outer loop
      vertex 7 0 0
      vertex 7 11 0.5
      vertex 7 11 0
    endloop
  endfacet
  facet normal -1 -0 0
    outer loop
      vertex 7 11 0.5
      vertex 7 0 0
      vertex 7 0 0.5
    endloop
  endfacet
  facet normal -0 0 1
    outer loop
      vertex 7 11 0.5
      vertex 9 0 0.5
      vertex 9 11 0.5
    endloop
  endfacet
  facet normal 0 0 1
    outer loop
      vertex 9 0 0.5
      vertex 7 11 0.5
      vertex 7 0 0.5
    endloop
  endfacet
  facet normal 1 -0 0
    outer loop
      vertex 9 0 0.5
      vertex 9 11 0
      vertex 9 11 0.5
    endloop
  endfacet
  facet normal 1 0 0
    outer loop
      vertex 9 11 0
      vertex 9 0 0.5
      vertex 9 0 0
    endloop
  endfacet
  facet normal 0 1 -0
    outer loop
      vertex 9 11 0
      vertex 7 11 0.5
      vertex 9 11 0.5
    endloop
  endfacet
  facet normal 0 1 0
    outer loop
      vertex 7 11 0.5
      vertex 9 11 0
      vertex 7 11 0
    endloop
  endfacet
  facet normal 0 0 -1
    outer loop
      vertex 7 0 0
      vertex 9 11 0
      vertex 9 0 0
    endloop
  endfacet
  facet normal -0 0 -1
    outer loop
      vertex 9 11 0
      vertex 7 0 0
      vertex 7 11 0
    endloop
  endfacet
  facet normal 0 -1 0
    outer loop
      vertex 7 0 0
      vertex 9 0 0.5
      vertex 7 0 0.5
    endloop
  endfacet
  facet normal 0 -1 -0
    outer loop
      vertex 9 0 0.5
      vertex 7 0 0
      vertex 9 0 0
    endloop
  endfacet
  facet normal -1 0 0
    outer loop
      vertex 11 0 0
      vertex 11 10 0.5
      vertex 11 10 0
    endloop
  endfacet
  facet normal -1 -0 0
    outer loop
      vertex 11 10 0.5
      vertex 11 0 0
      vertex 11 0 0.5
    endloop
  endfacet
  facet normal -0 0 1
    outer loop
      vertex 11 10 0.5
      vertex 13 0 0.5
      vertex 13 10 0.5
    endloop
  endfacet
  facet normal 0 0 1
    outer loop
      vertex 13 0 0.5
      vertex 11 10 0.5
      vertex 11 0 0.5
    endloop
  endfacet
  facet normal 1 -0 0
    outer loop
      vertex 13 0 0.5
      vertex 13 10 0
      vertex 13 10 0.5
    endloop
  endfacet
  facet normal 1 0 0
    outer loop
      vertex 13 10 0
      vertex 13 0 0.5
      vertex 13 0 0
    endloop
  endfacet
  facet normal 0 1 -0
    outer loop
      vertex 13 10 0
      vertex 11 10 0.5
      vertex 13 10 0.5
    endloop
  endfacet
  facet normal 0 1 0
    outer loop
      vertex 11 10 0.5
      vertex 13 10 0
      vertex 11 10 0
    endloop
  endfacet
  facet normal 0 0 -1
    outer loop
      vertex 11 0 0
      vertex 13 10 0
      vertex 13 0 0
    endloop
  endfacet
  facet normal -0 0 -1
    outer loop
      vertex 13 10 0
      vertex 11 0 0
      vertex 11 10 0
    endloop
  endfacet
  facet normal 0 -1 0
    outer loop
      vertex 11 0 0
      vertex 13 0 0.5
      vertex 11 0 0.5
    endloop
  endfacet
  facet normal 0 -1 -0
    outer loop
      vertex 13 0 0.5
      vertex 11 0 0
      vertex 13 0 0
    endloop
  endfacet
endsolid OpenSCAD_Model
